<?xml version="1.0" encoding="UTF-8"?>
<svg version="1.2" baseProfile="tiny"
     xmlns="http://www.w3.org/2000/svg"
     viewBox="0 0 500 500">

  <circle cx="250" cy="250" r="250" fill="#ffffff"/>

  <g transform="translate(50, 214) scale(2.03)">
    <path d="M196.061 22.245C192.346 22.1174 189.182 22.6885 185.687 21.2076C183.785 20.4014 182.324 18.8346 184.052 16.962C184.831 17.312 185.544 17.6254 186.393 17.8048C188.904 18.3368 193.682 18.5162 195.965 17.2716C197.728 16.3112 197.009 14.728 195.491 14.0027C191.894 12.2829 184.745 12.8288 182.446 16.5159C180.514 19.6142 183.006 22.1275 185.932 23.0196C188.369 23.7638 193.995 23.9218 196.348 22.9084C196.775 22.7239 196.645 22.264 196.062 22.245H196.061ZM193.821 15.0249C193.999 15.0742 195.621 15.5101 195.312 15.9132C194.791 16.0396 194.297 16.2569 193.77 16.3694C191.914 16.7636 189.792 16.7295 187.902 16.5564C187.583 16.5273 185.001 16.1988 184.999 15.9789C187.559 14.3211 190.935 14.2377 193.821 15.0249Z" fill="#002347"/>
    <path d="M40.0392 0.282173C39.2835 -0.487348 38.2626 0.504563 37.6447 1.03021C34.9065 3.35773 32.2315 6.2804 29.5944 8.76839C26.951 11.2627 24.1029 13.5473 21.6882 16.2766L19.7915 6.93746C19.7675 6.83132 19.7271 6.73655 19.6765 6.65189C20.604 5.12169 21.4759 3.52705 22.2909 1.85533C22.4501 1.44593 22.3755 1.05675 21.8701 1.1313C21.1435 1.2387 19.9204 2.75374 19.4617 3.35141C17.8039 5.50708 16.6086 8.10627 14.9608 10.3163C11.6174 14.8007 7.11526 18.6483 2.65103 21.988C1.94216 22.5187 -0.414421 23.5599 0.0556313 24.6023C0.755656 26.1527 4.09404 23.3274 4.88883 22.7322C10.4865 18.5409 14.9886 13.8669 18.6442 8.28317C18.7099 11.2223 19.5034 15.991 20.0834 18.0962C20.4726 19.5088 21.299 19.567 22.2846 18.5864C23.5734 17.3039 24.6904 15.8457 26.0071 14.5644C30.0493 10.6347 34.3 6.86164 38.3876 2.96349C39.0119 2.36835 41.021 1.28293 40.0366 0.282173H40.0392Z" fill="#002347"/>
    <path d="M95.9584 14.9804C94.4358 15.3885 93.0067 16.0468 91.5953 16.7266C90.985 14.5558 89.2779 14.5482 87.3724 15.0448C86.3603 15.3089 85.4454 15.8485 84.5066 16.2755C84.3297 16.0949 86.2149 12.7641 84.3916 13.55C84.221 13.6233 83.852 14.1957 83.7307 14.389C83.2986 15.0739 81.6307 18.1419 81.5485 18.7699C81.4171 19.7681 82.2776 20.0663 83.1002 19.7074C83.7371 19.4294 84.9615 18.1734 85.8447 17.6857C86.4866 17.3319 89.221 16.0026 89.6544 16.8707C89.9653 17.4924 88.6322 19.7883 90.2445 19.8287C90.7904 19.8426 92.3875 18.4085 93.0572 18.0345C94.9678 16.9693 97.9511 16.0077 100.105 16.4145C100.536 17.0084 98.291 19.274 99.7252 19.9185C100.768 20.386 101.464 18.6877 101.732 17.9094C103.194 13.6726 98.5526 14.2841 95.9597 14.9804H95.9584Z" fill="#002347"/>
    <path d="M145.792 18.3271C145.821 17.641 146.127 17.6827 146.308 17.4186C146.764 16.7514 145.845 15.7014 145.301 15.3198C143.312 13.9248 139.013 14.2027 136.908 15.2616C133.697 16.8765 131.881 22.5715 137.162 22.0597C139.362 21.8462 142.071 20.599 143.917 19.415L144.119 19.4656C144.801 20.7936 145.648 21.0741 147.107 20.8214C147.895 20.6849 148.995 20.1087 149.037 19.2546C148.115 18.4762 145.728 19.8383 145.791 18.3271H145.792ZM143.001 17.9164C141.498 18.9096 138.65 20.1125 136.865 20.2743C135.721 20.3779 135.407 20.3551 135.718 19.1307C136.548 15.858 141.827 15.6963 144.415 16.5758C144.681 16.8575 143.189 17.7926 143.001 17.9164Z" fill="#002347"/>
    <path d="M44.1241 17.0868C44.1532 16.4007 44.459 16.4424 44.6397 16.1783C45.0958 15.5112 44.1772 14.4611 43.6326 14.0795C41.6437 12.6845 37.345 12.9625 35.2399 14.0214C32.0291 15.6363 30.2134 21.3312 35.4939 20.8195C37.6938 20.6059 40.4029 19.3588 42.249 18.1748L42.4511 18.2253C43.1335 19.5534 43.9801 19.8339 45.4395 19.5812C46.2267 19.4447 47.3273 18.8685 47.369 18.0143C46.4466 17.2359 44.0597 18.5981 44.1229 17.0868H44.1241ZM41.3341 16.6762C39.8317 17.6694 36.9836 18.8723 35.1982 19.034C34.0546 19.1376 33.74 19.1149 34.0509 17.8905C34.881 14.6178 40.159 14.4561 42.7481 15.3355C43.016 15.6173 41.5224 16.5524 41.3341 16.6762Z" fill="#002347"/>
    <path d="M61.6515 16.1927C60.2401 15.475 57.1785 14.689 55.6558 14.919C55.2578 14.9796 54.8964 15.1275 54.5843 15.3309C54.7081 14.7092 54.8219 14.0901 54.9166 13.4772C55.0038 12.9086 55.3993 11.4328 54.8156 11.1409L54.3228 11.0903C53.9677 11.1914 53.7617 11.9849 53.6189 12.3324C52.1052 16.0271 51.2813 21.3367 50.5358 25.3208C50.1466 27.3994 49.204 31.0916 49.1383 33.0059C49.0789 34.7206 50.7329 34.9 51.0526 33.7173C51.9826 30.2766 52.392 25.9387 53.0718 22.3451C53.3106 21.084 53.6038 19.7989 53.8957 18.5139C53.9702 18.6162 54.0536 18.7173 54.1484 18.8159C55.273 19.9708 59.1838 20.8502 60.7392 20.7466C64.2356 20.5116 64.8471 17.8189 61.6515 16.1927ZM56.1916 17.9806C55.7001 17.7658 54.6197 17.3084 55.2654 16.76C55.8757 16.2407 56.4923 16.266 57.09 16.3645C58.3624 16.5743 62.0887 17.7722 62.2505 18.3875C62.4135 19.0079 61.5201 20.3094 56.1916 17.9819V17.9806Z" fill="#002347"/>
    <path d="M72.2684 13.7929C70.0243 13.9547 67.2747 14.9542 67.0877 17.5622C66.7845 21.7952 75.5904 22.6393 76.9929 18.5036C78.1062 15.2195 75.157 13.5857 72.2684 13.7929ZM69.0412 17.9539C68.7809 17.0568 70.0066 15.9082 70.8027 15.7477C71.1375 15.6794 73.0518 15.6466 73.4044 15.6946C73.7645 15.7439 74.8828 16.2152 75.0887 16.4667C75.2555 16.6688 75.2972 16.9885 75.2934 17.2425C75.2517 20.0552 69.5366 19.6547 69.0412 17.9539Z" fill="#002347"/>
    <path d="M166.083 19.3775C165.662 19.0603 165.037 18.9807 164.56 18.7849C164.562 17.4783 164.344 14.9537 162.657 14.797C160.968 14.6391 157.464 17.2345 156.04 18.21C156.044 16.9249 156.341 15.5489 156.194 14.2613C156.169 14.0389 156.178 13.886 155.962 13.7483C155.732 13.699 155.645 13.9391 155.56 14.0882C155.172 14.7692 154.304 18.5511 154.287 19.3674C154.274 20.0257 154.667 20.5994 155.368 20.5981C156.046 20.5969 159.368 17.9812 160.415 17.4417C161.074 17.1018 161.765 16.8491 162.451 16.5736C162.884 17.7083 162.431 19.5392 163.571 20.2923C164.227 20.7257 165.319 20.7384 166.035 20.2974C166.369 20.0914 166.398 19.6113 166.084 19.3762L166.083 19.3775Z" fill="#002347"/>
    <path d="M130.47 19.3775C130.049 19.0603 129.423 18.9807 128.947 18.7849C128.948 17.4783 128.731 14.9537 127.044 14.797C125.355 14.6391 121.851 17.2345 120.427 18.21C120.431 16.9249 120.728 15.5489 120.581 14.2613C120.556 14.0389 120.565 13.886 120.348 13.7483C120.118 13.699 120.031 13.9391 119.947 14.0882C119.559 14.7692 118.691 18.5511 118.674 19.3674C118.66 20.0257 119.053 20.5994 119.755 20.5981C120.433 20.5969 123.755 17.9812 124.801 17.4417C125.461 17.1018 126.152 16.8491 126.838 16.5736C127.27 17.7083 126.818 19.5392 127.958 20.2923C128.614 20.7257 129.705 20.7384 130.422 20.2974C130.755 20.0914 130.784 19.6113 130.471 19.3762L130.47 19.3775Z" fill="#002347"/>
    <path d="M176.315 20.0014C174.89 20.009 174.12 19.4871 173.399 18.4345C172.81 17.5766 172.906 14.7815 172.6 13.8856C172.545 13.7226 172.391 13.6152 172.219 13.6152C172.043 13.6152 171.885 13.729 171.833 13.8957C170.846 17.0926 171.084 20.364 174.747 21.5518C175.682 21.8551 178.654 21.8487 178.621 20.5081C178.601 19.6539 176.747 19.9976 176.316 20.0001L176.315 20.0014Z" fill="#002347"/>
    <path d="M171.952 8.73669C172.396 8.30076 173.422 7.8863 173.323 7.08646C173.301 6.91208 173.166 6.78067 172.992 6.75287C171.962 6.58608 170.275 7.60832 170.342 8.56358C170.385 9.17642 170.874 9.62626 171.507 9.41903C171.811 9.31921 171.78 8.90475 171.95 8.73796L171.952 8.73669Z" fill="#002347"/>
    <path d="M112.175 20.0014C110.749 20.009 109.98 19.4871 109.258 18.4345C108.669 17.5766 108.765 14.7815 108.46 13.8856C108.404 13.7226 108.25 13.6152 108.078 13.6152C107.902 13.6152 107.744 13.729 107.693 13.8957C106.706 17.0926 106.943 20.364 110.606 21.5518C111.542 21.8551 114.513 21.8487 114.481 20.5081C114.46 19.6539 112.607 19.9976 112.176 20.0001L112.175 20.0014Z" fill="#002347"/>
    <path d="M107.813 8.73669C108.258 8.30076 109.284 7.8863 109.184 7.08646C109.162 6.91208 109.027 6.78067 108.853 6.75287C107.823 6.58608 106.136 7.60832 106.203 8.56358C106.246 9.17642 106.735 9.62626 107.368 9.41903C107.673 9.31921 107.641 8.90475 107.812 8.73796L107.813 8.73669Z" fill="#002347"/>
  </g>
</svg>
